<svg xmlns="http://www.w3.org/2000/svg" viewBox="-30.70 -76.56 3126.03 1194.13" role="img" aria-labelledby="title desc">
  <title id="title">Studio mean</title>
  <desc id="desc">Studio mean make meaningful moment</desc>
  <path fill="#201c1f" d="M 235.20 341.90 C 236.10 341 236.10 339.20 236.10 339.20 C 233.40 337.40 231.60 335.60 228 333.80 C 204.60 321.20 180.30 314 153.30 312.20 C 121.80 309.50 89.40 310.40 59.70 323 C 8.40 343.70 -5.10 388.70 25.50 433.70 C 40.80 457.10 60.60 475.10 82.20 491.30 C 159.60 548 246.90 575 342.30 571.40 C 375.60 570.50 408.90 565.10 438.60 548.90 C 475.50 528.20 494.40 497.60 490.80 454.40 C 489.90 442.70 488.10 431.90 483.60 419.30 C 474.60 386 457.50 354.50 438.60 325.70 C 418.80 294.20 399 264.50 380.10 233.90 C 366.60 212.30 356.70 190.70 351.30 165.50 C 343.20 131.30 351.30 103.40 378.30 80 C 386.40 72.80 396.30 65.60 406.20 60.20 C 457.50 31.40 513.30 17 571.80 15.20 C 585.30 15.20 598.80 17 612.30 20.60 C 634.80 24.20 645.60 40.40 646.50 62 C 648.30 79.10 644.70 94.40 635.70 108.80 C 623.10 129.50 609.60 149.30 593.40 168.20 C 570 194.30 543.90 219.50 518.70 244.70 C 516.90 247.40 511.50 250.10 514.20 256.40 C 525.90 256.40 533.10 249.20 540.30 242 C 566.40 218.60 593.40 192.50 617.70 166.40 C 631.20 153.80 642.90 135.80 652.80 120.50 C 664.50 101.60 669.90 80 668.10 58.40 C 666.30 28.70 651 9.80 623.10 0.80 C 612.30 -3.70 599.70 -4.60 588.90 -4.60 C 526.80 -8.20 469.20 6.20 413.40 31.40 C 392.70 41.30 372.90 53.90 356.70 71 C 329.70 98.90 320.70 131.30 329.70 170 C 338.70 211.40 362.10 247.40 384.60 282.50 C 403.50 314 423.30 343.70 442.20 374.30 C 454.80 395 462.90 416.60 466.50 440.90 C 472.80 480.50 464.70 510.20 419.70 531.80 C 418.80 532.70 417.90 532.70 416.10 532.70 C 393.60 542.60 371.10 547.10 347.70 548 C 286.50 551.60 228.90 540.80 173.10 516.50 C 131.70 497.60 93 474.20 61.50 441.80 C 49.80 429.20 39.90 417.50 35.40 402.20 C 28.20 381.50 33.60 365.30 51.60 353.60 C 66 343.70 83.10 337.40 100.20 335.60 C 125.40 333.80 151.50 335.60 175.80 337.40 C 195.60 339.20 215.40 340.10 235.20 341.90 Z M 652.80 93.50 C 686.10 93.50 730.20 92.60 769.80 91.70 C 736.50 144.80 682.50 215 654.60 281.60 C 637.50 321.20 612.30 406.70 693.30 378.80 C 740.10 362.60 801.30 318.50 816.60 305 C 822.90 299.60 826.50 292.40 822 285.20 C 816.60 278 811.20 281.60 804 286.10 C 798.60 288.80 795 293.30 789.60 296.90 C 761.70 320.30 717.60 350 691.50 359.90 C 633 384.20 662.70 313.10 684.30 270.80 C 710.40 221.30 759.90 143 801.30 90.80 C 858 92.60 1081.20 94.40 1146.90 82.70 C 1172.10 77.30 1176.60 63.80 1146.90 62 C 1129.80 61.10 1103.70 63.80 1074.90 66.50 C 984 76.40 867.90 78.20 816.60 69.20 C 851.70 17.90 839.10 30.50 866.10 -6.40 C 867.90 -10 873.30 -15.40 874.20 -19.90 C 874.20 -24.40 873.30 -32.50 870.60 -34.30 C 863.40 -40.60 854.40 -32.50 850.80 -25.30 C 816.60 19.70 822 17 788.70 63.80 C 787.80 65.60 786 67.40 784.20 68.30 C 742.80 73.70 698.70 73.70 659.10 70.10 C 633.90 68.30 627.60 75.50 624 80.90 C 622.20 84.50 624.90 97.10 652.80 93.50 Z M 1011.90 300.50 C 1031.70 276.20 995.70 292.40 984 296 C 958.80 304.10 919.20 321.20 930.90 276.20 C 933.60 269 936.30 260.90 939 252.80 C 942.60 245.60 941.70 238.40 934.50 235.70 C 930 233 921.90 233 918.30 235.70 C 912 237.50 908.40 243.80 903.90 246.50 C 883.20 263.60 862.50 279.80 841.80 296 C 838.20 297.80 834.60 297.80 827.40 301.40 C 831.90 294.20 834.60 289.70 836.40 286.10 C 843.60 277.10 850.80 268.10 856.20 259.10 C 860.70 252.80 861.60 246.50 856.20 241.10 C 850.80 237.50 844.50 240.20 839.10 244.70 C 825.60 260.90 811.20 277.10 803.10 297.80 C 801.30 302.30 800.40 308.60 800.40 313.10 C 800.40 324.80 806.70 331.10 818.40 331.10 C 824.70 331.10 831 329.30 836.40 326.60 C 850.80 320.30 862.50 310.40 875.10 302.30 C 884.10 296.90 891.30 290.60 900.30 284.30 C 901.20 288.80 902.10 289.70 902.10 292.40 C 899.40 344.60 975.90 331.10 1011.90 300.50 Z M 1068.60 448.10 C 1073.10 418.40 1082.10 398.60 1092.90 377.90 C 1135.20 291.50 1184.70 209.60 1237.80 127.70 C 1244.10 116.90 1252.20 104.30 1260.30 93.50 C 1268.40 79.10 1268.40 70.10 1260.30 65.60 C 1254 62 1245.90 65.60 1236.90 77.30 C 1233.30 80.90 1230.60 86.30 1228.80 89.90 C 1198.20 136.70 1168.50 182.60 1131.60 224 C 1121.70 233.90 1110.90 241.10 1096.50 242.90 C 1086.60 242.90 1077.60 245.60 1069.50 249.20 C 1043.40 258.20 1020 273.50 1003.80 295.10 C 1000.20 303.20 995.70 312.20 994.80 320.30 C 993.90 334.70 1004.70 344.60 1020 341.90 C 1027.20 341 1034.40 337.40 1040.70 334.70 C 1060.50 320.30 1080.30 305 1099.20 289.70 C 1103.70 286.10 1108.20 282.50 1113.60 278 C 1113.60 283.40 1111.80 287 1110 291.50 C 1092 327.50 1074 365.30 1056.90 401.30 C 1050.60 414.80 1047.90 428.30 1045.20 442.70 C 1041.60 464.30 1059.60 476.90 1080.30 469.70 C 1089.30 467 1099.20 461.60 1107.30 456.20 C 1164.90 416.60 1213.50 367.10 1262.10 317.60 C 1291.80 287.90 1274.70 278 1247.70 302.30 C 1222.50 327.50 1190.10 354.50 1164 377.90 C 1141.50 398.60 1117.20 417.50 1092.90 435.50 C 1088.40 440.90 1080.30 442.70 1068.60 448.10 Z M 1024.50 313.10 C 1034.40 294.20 1053.30 281.60 1074 275.30 C 1065.90 289.70 1047 304.10 1024.50 313.10 Z M 1389.90 311.30 C 1410.60 300.50 1394.40 270.80 1370.10 296.90 C 1351.20 317.60 1251.30 369.80 1287.30 296 C 1299 276.20 1311.60 258.20 1323.30 239.30 C 1342.20 214.10 1313.40 197.90 1301.70 213.20 C 1286.40 233.90 1276.50 262.70 1263 284.30 C 1256.70 292.40 1255.80 304.10 1255.80 314 C 1253.10 329.30 1262.10 344.60 1278.30 347.30 C 1287.30 349.10 1298.10 348.20 1307.10 347.30 C 1336.80 340.10 1363.80 325.70 1389.90 311.30 Z M 1368.30 141.20 C 1347.60 141.20 1337.70 157.40 1335.90 171.80 C 1331.40 194.30 1337.70 195.20 1354.80 185.30 C 1366.50 178.10 1379.10 165.50 1381.80 156.50 C 1383.60 148.40 1378.20 141.20 1368.30 141.20 Z M 1491.60 289.70 C 1495.20 281.60 1497.90 276.20 1500.60 270.80 C 1502.40 260 1507.80 249.20 1507.80 240.20 C 1508.70 220.40 1497 211.40 1477.20 213.20 C 1462.80 214.10 1452.90 220.40 1443 227.60 C 1419.60 246.50 1397.10 265.40 1381.80 289.70 C 1337.70 359.90 1371 381.50 1403.40 371.60 C 1425.90 364.40 1438.50 348.20 1463.70 324.80 C 1468.20 319.40 1473.60 316.70 1479.90 315.80 C 1501.50 311.30 1524 308.60 1546.50 304.10 C 1558.20 303.20 1568.10 301.40 1579.80 298.70 C 1582.50 298.70 1588.80 293.30 1588.80 291.50 C 1589.70 287 1586.10 281.60 1582.50 279.80 C 1577.10 278 1575.30 278 1569 278 C 1558.20 279.80 1542 281.60 1532.10 283.40 C 1519.50 286.10 1506 287 1491.60 289.70 Z M 1405.20 294.20 C 1408.80 311.30 1421.40 316.70 1440.30 316.70 C 1416.90 368 1363.80 343.70 1405.20 294.20 Z M 1481.70 234.80 C 1481.70 242 1483.50 247.40 1481.70 249.20 C 1478.10 260 1472.70 272.60 1465.50 282.50 C 1461 292.40 1444.80 293.30 1437.60 286.10 C 1431.30 281.60 1432.20 276.20 1434.90 271.70 C 1444.80 254.60 1459.20 242 1481.70 234.80 Z M 1792.20 388.70 C 1836.30 386 1841.70 359 1794.90 361.70 C 1722.90 365.30 1650 368 1577.10 369.80 C 1572.60 370.70 1566.30 370.70 1562.70 372.50 C 1559.10 375.20 1556.40 377.90 1556.40 382.40 C 1555.50 385.10 1558.20 390.50 1562.70 392.30 C 1567.20 394.10 1574.40 394.10 1579.80 394.10 C 1593.30 394.10 1606.80 393.20 1619.40 393.20 Z M 2064 282.50 C 2063.10 278.90 2062.20 274.40 2061.30 270.80 C 2054.10 250.10 2039.70 242.90 2019.90 251 C 2012.70 254.60 2005.50 258.20 1998.30 263.60 C 1987.50 270.80 1966.80 296.90 1956.90 303.20 C 1957.80 292.40 1973.10 265.40 1977.60 256.40 C 1979.40 251 1982.10 245.60 1983.90 239.30 C 1983.90 234.80 1980.30 229.40 1977.60 228.50 C 1974 226.70 1968.60 229.40 1965 232.10 C 1962.30 233.90 1960.50 239.30 1959.60 242.90 C 1944.30 270.80 1930.80 296.90 1917.30 323.90 C 1913.70 329.30 1911.90 332.90 1911 338.30 C 1909.20 350 1917.30 356.30 1928.10 352.70 C 1934.40 349.10 1938.90 344.60 1944.30 340.10 C 1967.70 321.20 1992.90 290.60 2016.30 272.60 C 2037.90 257.30 2031.60 268.10 2039.70 287.90 C 2046 306.80 2057.70 314 2076.60 308.60 C 2085.60 306.80 2095.50 303.20 2103.60 297.80 C 2127.90 284.30 2157.60 262.70 2181.90 249.20 C 2206.20 233 2202.60 246.50 2202.60 271.70 C 2202.60 278.90 2201.70 284.30 2201.70 291.50 C 2202.60 323 2218.80 338.30 2251.20 334.70 C 2277.30 332 2300.70 321.20 2323.20 308.60 C 2337.60 303.20 2339.40 293.30 2335.80 287.90 C 2333.10 283.40 2327.70 282.50 2313.30 287 C 2298 292.40 2276.40 303.20 2260.20 306.80 C 2236.80 314 2224.20 307.70 2226.90 280.70 C 2228.70 269.90 2228.70 257.30 2226 246.50 C 2223.30 228.50 2210.70 221.30 2193.60 224.90 C 2182.80 226.70 2171.10 232.10 2161.20 237.50 C 2136 250.10 2112.60 264.50 2087.40 278.90 C 2080.20 282.50 2073 287 2064 282.50 Z M 2504.10 289.70 C 2478.90 313.10 2366.40 336.50 2343 313.10 C 2334.90 305 2334.90 295.10 2352.90 295.10 C 2364.60 295.10 2377.20 294.20 2388 291.50 C 2402.40 287 2415.90 281.60 2427.60 274.40 C 2435.70 269.90 2439.30 261.80 2437.50 252.80 C 2435.70 243.80 2428.50 238.40 2419.50 237.50 C 2397.90 237.50 2373.60 241.10 2352 251 C 2332.20 261.80 2327.70 268.10 2319.60 291.50 C 2307 340.10 2356.50 343.70 2388.90 341.90 C 2436.60 339.20 2486.10 327.50 2530.20 305 C 2535.60 302.30 2538.30 296 2535.60 289.70 C 2532 283.40 2527.50 282.50 2520.30 283.40 C 2514.90 285.20 2509.50 287 2504.10 289.70 Z M 2413.20 263.60 C 2398.80 277.10 2363.70 285.20 2345.70 283.40 C 2375.40 263.60 2429.40 242.90 2413.20 263.60 Z M 2763.30 301.40 C 2771.40 297.80 2766.90 290.60 2760.60 288.80 C 2755.20 287.90 2749.80 292.40 2745.30 294.20 C 2728.20 302.30 2711.10 313.10 2696.70 316.70 C 2641.80 332.90 2688.60 246.50 2695.80 231.20 C 2699.40 224.90 2702.10 219.50 2703 213.20 C 2703.90 207.80 2702.10 203.30 2699.40 199.70 C 2695.80 197.90 2689.50 197.90 2685.90 198.80 C 2682.30 199.70 2678.70 204.20 2676 207.80 C 2667.90 215.90 2659.80 224.90 2651.70 233 C 2646.30 239.30 2639.10 241.10 2632.80 240.20 C 2589.60 236.60 2552.70 251 2521.20 278 C 2514 284.30 2509.50 289.70 2504.10 296.90 C 2497.80 305.90 2495.10 315.80 2501.40 326.60 C 2506.80 336.50 2517.60 340.10 2529.30 338.30 C 2537.40 337.40 2547.30 336.50 2554.50 331.10 C 2586 314.90 2614.80 295.10 2645.40 276.20 C 2643.60 287.90 2641.80 297.80 2641.80 307.70 C 2641.80 369.80 2736.30 326.60 2763.30 301.40 Z M 2526.60 312.20 C 2547.30 281.60 2592.30 260.90 2628.30 258.20 C 2604 281.60 2561.70 305.90 2526.60 312.20 Z M 2913.60 350.90 C 2889.30 360.80 2888.40 350 2896.50 327.50 C 2904.60 309.50 2918.10 294.20 2915.40 275.30 C 2911.80 235.70 2874.90 247.40 2849.70 260 C 2820 274.40 2789.40 295.10 2763.30 316.70 C 2733.60 341.90 2775 298.70 2781.30 289.70 C 2790.30 278 2797.50 264.50 2805.60 251.90 C 2814.60 237.50 2816.40 229.40 2811 225.80 C 2805.60 220.40 2797.50 225.80 2788.50 237.50 C 2786.70 242 2784.90 244.70 2782.20 248.30 C 2771.40 264.50 2760.60 280.70 2748.90 296 C 2739.90 310.40 2730.90 324.80 2721 339.20 C 2716.50 344.60 2714.70 351.80 2721 358.10 C 2728.20 365.30 2735.40 360.80 2740.80 358.10 C 2745.30 356.30 2748 352.70 2750.70 350 C 2769.60 336.50 2786.70 323 2804.70 310.40 C 2823.60 298.70 2844.30 287 2864.10 276.20 C 2901.90 263.60 2892 283.40 2881.20 309.50 C 2878.50 320.30 2873.10 328.40 2870.40 340.10 C 2867.70 355.40 2872.20 365.30 2883 370.70 C 2894.70 375.20 2907.30 374.30 2919.90 368.90 C 2957.70 353.60 2996.40 337.40 3033.30 320.30 C 3068.40 304.10 3059.40 280.70 3021.60 297.80 C 2990.10 314 2945.10 339.20 2913.60 350.90 Z"/>
  <path fill="#201c1f" d="M 605.87 964.25 C 605.54 962.93 605.21 961.28 604.88 959.96 C 602.24 952.37 596.96 949.73 589.70 952.70 C 587.06 954.02 584.42 955.34 581.78 957.32 C 577.82 959.96 570.23 969.53 566.60 971.84 C 566.93 967.88 572.54 957.98 574.19 954.68 C 574.85 952.70 575.84 950.72 576.50 948.41 C 576.50 946.76 575.18 944.78 574.19 944.45 C 572.87 943.79 570.89 944.78 569.57 945.77 C 568.58 946.43 567.92 948.41 567.59 949.73 C 561.98 959.96 557.03 969.53 552.08 979.43 C 550.76 981.41 550.10 982.73 549.77 984.71 C 549.11 989 552.08 991.31 556.04 989.99 C 558.35 988.67 560 987.02 561.98 985.37 C 570.56 978.44 579.80 967.22 588.38 960.62 C 596.30 955.01 593.99 958.97 596.96 966.23 C 599.27 973.16 603.56 975.80 610.49 973.82 C 613.79 973.16 617.42 971.84 620.39 969.86 C 629.30 964.91 640.19 956.99 649.10 952.04 C 658.01 946.10 656.69 951.05 656.69 960.29 C 656.69 962.93 656.36 964.91 656.36 967.55 C 656.69 979.10 662.63 984.71 674.51 983.39 C 684.08 982.40 692.66 978.44 700.91 973.82 C 706.19 971.84 706.85 968.21 705.53 966.23 C 704.54 964.58 702.56 964.25 697.28 965.90 C 691.67 967.88 683.75 971.84 677.81 973.16 C 669.23 975.80 664.61 973.49 665.60 963.59 C 666.26 959.63 666.26 955.01 665.27 951.05 C 664.28 944.45 659.66 941.81 653.39 943.13 C 649.43 943.79 645.14 945.77 641.51 947.75 C 632.27 952.37 623.69 957.65 614.45 962.93 C 611.81 964.25 609.17 965.90 605.87 964.25 Z M 791.66 971.18 C 794.63 969.86 792.98 967.22 790.67 966.56 C 788.69 966.23 786.71 967.88 785.06 968.54 C 778.79 971.51 772.52 975.47 767.24 976.79 C 747.11 982.73 764.27 951.05 766.91 945.44 C 768.23 943.13 769.22 941.15 769.55 938.84 C 769.88 936.86 769.22 935.21 768.23 933.89 C 766.91 933.23 764.60 933.23 763.28 933.56 C 761.96 933.89 760.64 935.54 759.65 936.86 C 756.68 939.83 753.71 943.13 750.74 946.10 C 748.76 948.41 746.12 949.07 743.81 948.74 C 727.97 947.42 714.44 952.70 702.89 962.60 C 700.25 964.91 698.60 966.89 696.62 969.53 C 694.31 972.83 693.32 976.46 695.63 980.42 C 697.61 984.05 701.57 985.37 705.86 984.71 C 708.83 984.38 712.46 984.05 715.10 982.07 C 726.65 976.13 737.21 968.87 748.43 961.94 C 747.77 966.23 747.11 969.86 747.11 973.49 C 747.11 996.26 781.76 980.42 791.66 971.18 Z M 704.87 975.14 C 712.46 963.92 728.96 956.33 742.16 955.34 C 733.25 963.92 717.74 972.83 704.87 975.14 Z M 793.97 953.69 C 793.31 955.34 792.98 956.33 792.32 957.65 C 787.37 966.89 782.09 976.46 777.14 986.03 C 770.87 999.89 763.94 1013.42 757.34 1027.28 C 757.01 1028.60 755.69 1029.92 756.68 1030.91 C 756.68 1032.56 757.34 1034.87 758.33 1035.20 C 759.65 1036.19 762.29 1035.53 763.28 1035.20 C 765.26 1034.54 766.25 1032.56 767.24 1031.24 C 781.43 1012.76 797.93 996.26 815.42 980.09 C 818.39 977.78 820.04 977.45 823.34 979.10 C 843.14 987.68 862.28 985.04 879.77 974.15 C 883.73 971.84 885.71 968.87 886.37 964.25 C 883.73 964.58 881.75 964.58 879.11 965.57 C 876.14 966.89 872.84 968.54 869.87 969.86 C 861.62 973.82 853.70 976.13 844.79 975.47 C 839.18 975.14 833.24 974.81 827.96 970.85 C 830.93 969.20 833.24 968.54 835.55 966.89 C 843.80 962.27 851.72 957.98 860.63 952.70 C 862.61 951.71 864.59 950.06 866.24 948.08 C 867.89 946.43 868.55 944.45 866.90 942.47 C 865.25 941.15 863.60 940.16 861.62 940.16 C 858.98 940.16 856.01 941.15 854.03 942.47 C 846.11 947.42 838.19 952.04 830.27 956.99 C 824.66 960.62 819.38 964.58 811.46 964.58 C 807.50 964.58 805.52 967.55 807.50 971.18 C 807.50 972.50 807.83 973.16 808.49 974.48 C 803.87 981.41 769.88 1017.38 771.20 1015.07 C 780.11 998.24 801.23 961.61 810.47 945.11 C 812.12 941.81 814.76 938.84 817.73 935.87 C 837.20 918.71 854.36 900.23 869.54 879.44 C 872.51 875.15 874.49 870.20 876.47 865.91 C 878.12 863.27 877.13 860.96 875.15 858.98 C 873.17 857 870.20 857 867.89 857.99 C 865.25 859.31 862.28 860.96 859.97 862.61 C 851.39 869.21 844.46 877.13 838.19 885.71 C 827.96 900.56 817.73 915.74 807.83 930.59 C 804.53 936.20 800.24 941.15 794.30 945.11 C 789.68 948.74 788.69 949.07 793.97 953.69 Z M 824.66 921.68 C 832.58 907.16 856.34 875.48 864.59 871.52 C 874.16 867.56 848.09 899.57 824.66 921.68 Z M 948.74 966.89 C 939.50 975.47 898.25 984.05 889.67 975.47 C 886.70 972.50 886.70 968.87 893.30 968.87 C 897.59 968.87 902.21 968.54 906.17 967.55 C 911.45 965.90 916.40 963.92 920.69 961.28 C 923.66 959.63 924.98 956.66 924.32 953.36 C 923.66 950.06 921.02 948.08 917.72 947.75 C 909.80 947.75 900.89 949.07 892.97 952.70 C 885.71 956.66 884.06 958.97 881.09 967.55 C 876.47 985.37 894.62 986.69 906.50 986.03 C 923.99 985.04 942.14 980.75 958.31 972.50 C 960.29 971.51 961.28 969.20 960.29 966.89 C 958.97 964.58 957.32 964.25 954.68 964.58 C 952.70 965.24 950.72 965.90 948.74 966.89 Z M 915.41 957.32 C 910.13 962.27 897.26 965.24 890.66 964.58 C 901.55 957.32 921.35 949.73 915.41 957.32 Z M 1078.76 964.25 C 1078.43 962.93 1078.10 961.28 1077.77 959.96 C 1075.13 952.37 1069.85 949.73 1062.59 952.70 C 1059.95 954.02 1057.31 955.34 1054.67 957.32 C 1050.71 959.96 1043.12 969.53 1039.49 971.84 C 1039.82 967.88 1045.43 957.98 1047.08 954.68 C 1047.74 952.70 1048.73 950.72 1049.39 948.41 C 1049.39 946.76 1048.07 944.78 1047.08 944.45 C 1045.76 943.79 1043.78 944.78 1042.46 945.77 C 1041.47 946.43 1040.81 948.41 1040.48 949.73 C 1034.87 959.96 1029.92 969.53 1024.97 979.43 C 1023.65 981.41 1022.99 982.73 1022.66 984.71 C 1022 989 1024.97 991.31 1028.93 989.99 C 1031.24 988.67 1032.89 987.02 1034.87 985.37 C 1043.45 978.44 1052.69 967.22 1061.27 960.62 C 1069.19 955.01 1066.88 958.97 1069.85 966.23 C 1072.16 973.16 1076.45 975.80 1083.38 973.82 C 1086.68 973.16 1090.31 971.84 1093.28 969.86 C 1102.19 964.91 1113.08 956.99 1121.99 952.04 C 1130.90 946.10 1129.58 951.05 1129.58 960.29 C 1129.58 962.93 1129.25 964.91 1129.25 967.55 C 1129.58 979.10 1135.52 984.71 1147.40 983.39 C 1156.97 982.40 1165.55 978.44 1173.80 973.82 C 1179.08 971.84 1179.74 968.21 1178.42 966.23 C 1177.43 964.58 1175.45 964.25 1170.17 965.90 C 1164.56 967.88 1156.64 971.84 1150.70 973.16 C 1142.12 975.80 1137.50 973.49 1138.49 963.59 C 1139.15 959.63 1139.15 955.01 1138.16 951.05 C 1137.17 944.45 1132.55 941.81 1126.28 943.13 C 1122.32 943.79 1118.03 945.77 1114.40 947.75 C 1105.16 952.37 1096.58 957.65 1087.34 962.93 C 1084.70 964.25 1082.06 965.90 1078.76 964.25 Z M 1240.13 966.89 C 1230.89 975.47 1189.64 984.05 1181.06 975.47 C 1178.09 972.50 1178.09 968.87 1184.69 968.87 C 1188.98 968.87 1193.60 968.54 1197.56 967.55 C 1202.84 965.90 1207.79 963.92 1212.08 961.28 C 1215.05 959.63 1216.37 956.66 1215.71 953.36 C 1215.05 950.06 1212.41 948.08 1209.11 947.75 C 1201.19 947.75 1192.28 949.07 1184.36 952.70 C 1177.10 956.66 1175.45 958.97 1172.48 967.55 C 1167.86 985.37 1186.01 986.69 1197.89 986.03 C 1215.38 985.04 1233.53 980.75 1249.70 972.50 C 1251.68 971.51 1252.67 969.20 1251.68 966.89 C 1250.36 964.58 1248.71 964.25 1246.07 964.58 C 1244.09 965.24 1242.11 965.90 1240.13 966.89 Z M 1206.80 957.32 C 1201.52 962.27 1188.65 965.24 1182.05 964.58 C 1192.94 957.32 1212.74 949.73 1206.80 957.32 Z M 1335.17 971.18 C 1338.14 969.86 1336.49 967.22 1334.18 966.56 C 1332.20 966.23 1330.22 967.88 1328.57 968.54 C 1322.30 971.51 1316.03 975.47 1310.75 976.79 C 1290.62 982.73 1307.78 951.05 1310.42 945.44 C 1311.74 943.13 1312.73 941.15 1313.06 938.84 C 1313.39 936.86 1312.73 935.21 1311.74 933.89 C 1310.42 933.23 1308.11 933.23 1306.79 933.56 C 1305.47 933.89 1304.15 935.54 1303.16 936.86 C 1300.19 939.83 1297.22 943.13 1294.25 946.10 C 1292.27 948.41 1289.63 949.07 1287.32 948.74 C 1271.48 947.42 1257.95 952.70 1246.40 962.60 C 1243.76 964.91 1242.11 966.89 1240.13 969.53 C 1237.82 972.83 1236.83 976.46 1239.14 980.42 C 1241.12 984.05 1245.08 985.37 1249.37 984.71 C 1252.34 984.38 1255.97 984.05 1258.61 982.07 C 1270.16 976.13 1280.72 968.87 1291.94 961.94 C 1291.28 966.23 1290.62 969.86 1290.62 973.49 C 1290.62 996.26 1325.27 980.42 1335.17 971.18 Z M 1248.38 975.14 C 1255.97 963.92 1272.47 956.33 1285.67 955.34 C 1276.76 963.92 1261.25 972.83 1248.38 975.14 Z M 1390.28 989.33 C 1381.37 992.96 1381.04 989 1384.01 980.75 C 1386.98 974.15 1391.93 968.54 1390.94 961.61 C 1389.62 947.09 1376.09 951.38 1366.85 956 C 1355.96 961.28 1344.74 968.87 1335.17 976.79 C 1324.28 986.03 1339.46 970.19 1341.77 966.89 C 1345.07 962.60 1347.71 957.65 1350.68 953.03 C 1353.98 947.75 1354.64 944.78 1352.66 943.46 C 1350.68 941.48 1347.71 943.46 1344.41 947.75 C 1343.75 949.40 1343.09 950.39 1342.10 951.71 C 1338.14 957.65 1334.18 963.59 1329.89 969.20 C 1326.59 974.48 1323.29 979.76 1319.66 985.04 C 1318.01 987.02 1317.35 989.66 1319.66 991.97 C 1322.30 994.61 1324.94 992.96 1326.92 991.97 C 1328.57 991.31 1329.56 989.99 1330.55 989 C 1337.48 984.05 1343.75 979.10 1350.35 974.48 C 1357.28 970.19 1364.87 965.90 1372.13 961.94 C 1385.99 957.32 1382.36 964.58 1378.40 974.15 C 1377.41 978.11 1375.43 981.08 1374.44 985.37 C 1373.45 990.98 1375.10 994.61 1379.06 996.59 C 1383.35 998.24 1387.97 997.91 1392.59 995.93 C 1406.45 990.32 1420.64 984.38 1434.17 978.11 C 1447.04 972.17 1443.74 963.59 1429.88 969.86 C 1418.33 975.80 1401.83 985.04 1390.28 989.33 Z M 1482.02 974.81 C 1489.61 970.85 1483.67 959.96 1474.76 969.53 C 1467.83 977.12 1431.20 996.26 1444.40 969.20 C 1448.69 961.94 1453.31 955.34 1457.60 948.41 C 1464.53 939.17 1453.97 933.23 1449.68 938.84 C 1444.07 946.43 1440.44 956.99 1435.49 964.91 C 1433.18 967.88 1432.85 972.17 1432.85 975.80 C 1431.86 981.41 1435.16 987.02 1441.10 988.01 C 1444.40 988.67 1448.36 988.34 1451.66 988.01 C 1462.55 985.37 1472.45 980.09 1482.02 974.81 Z M 1474.10 912.44 C 1466.51 912.44 1462.88 918.38 1462.22 923.66 C 1460.57 931.91 1462.88 932.24 1469.15 928.61 C 1473.44 925.97 1478.06 921.35 1479.05 918.05 C 1479.71 915.08 1477.73 912.44 1474.10 912.44 Z M 1538.45 989.33 C 1529.54 992.96 1529.21 989 1532.18 980.75 C 1535.15 974.15 1540.10 968.54 1539.11 961.61 C 1537.79 947.09 1524.26 951.38 1515.02 956 C 1504.13 961.28 1492.91 968.87 1483.34 976.79 C 1472.45 986.03 1487.63 970.19 1489.94 966.89 C 1493.24 962.60 1495.88 957.65 1498.85 953.03 C 1502.15 947.75 1502.81 944.78 1500.83 943.46 C 1498.85 941.48 1495.88 943.46 1492.58 947.75 C 1491.92 949.40 1491.26 950.39 1490.27 951.71 C 1486.31 957.65 1482.35 963.59 1478.06 969.20 C 1474.76 974.48 1471.46 979.76 1467.83 985.04 C 1466.18 987.02 1465.52 989.66 1467.83 991.97 C 1470.47 994.61 1473.11 992.96 1475.09 991.97 C 1476.74 991.31 1477.73 989.99 1478.72 989 C 1485.65 984.05 1491.92 979.10 1498.52 974.48 C 1505.45 970.19 1513.04 965.90 1520.30 961.94 C 1534.16 957.32 1530.53 964.58 1526.57 974.15 C 1525.58 978.11 1523.60 981.08 1522.61 985.37 C 1521.62 990.98 1523.27 994.61 1527.23 996.59 C 1531.52 998.24 1536.14 997.91 1540.76 995.93 C 1554.62 990.32 1568.81 984.38 1582.34 978.11 C 1595.21 972.17 1591.91 963.59 1578.05 969.86 C 1566.50 975.80 1550 985.04 1538.45 989.33 Z M 1620.95 986.36 C 1626.89 974.81 1632.50 961.94 1638.11 949.07 C 1639.43 946.10 1639.76 943.46 1637.45 941.48 C 1636.13 939.17 1633.49 940.16 1630.85 940.82 C 1628.87 941.48 1627.22 941.48 1625.24 941.81 C 1622.60 941.81 1619.63 941.81 1616.99 942.47 C 1607.09 945.11 1598.18 949.40 1590.26 956.66 C 1586.63 959.30 1583.66 962.93 1581.35 966.56 C 1579.37 969.20 1578.71 972.50 1580.69 975.80 C 1583.33 978.44 1586.63 979.76 1589.93 978.11 C 1594.88 976.79 1598.84 975.47 1603.79 972.83 C 1609.07 970.19 1618.97 962.27 1624.58 959.63 C 1623.92 959.63 1622.93 970.19 1615.67 981.08 C 1611.71 989 1603.79 994.94 1595.21 997.58 C 1572.77 1007.15 1549.67 1016.72 1528.55 1030.58 C 1521.29 1036.19 1513.37 1041.47 1505.78 1047.74 C 1502.15 1051.04 1498.52 1055.66 1496.21 1060.28 C 1491.92 1067.54 1495.55 1074.80 1503.80 1076.45 C 1507.43 1077.44 1511.39 1077.77 1515.68 1077.44 C 1532.18 1076.12 1546.37 1069.19 1560.23 1060.61 C 1581.68 1047.08 1597.52 1027.61 1610.72 1006.16 C 1613.03 1002.20 1616.33 997.25 1619.96 995.60 C 1630.85 991.97 1641.08 988.01 1651.31 984.71 C 1671.77 977.45 1659.23 984.38 1679.69 977.45 C 1682 977.12 1684.64 975.47 1686.95 974.15 C 1688.60 973.16 1690.25 970.52 1688.60 968.54 C 1687.28 966.89 1684.64 966.23 1682.99 965.90 C 1681.67 965.57 1680.02 966.23 1678.37 966.89 C 1650.98 976.79 1656.26 974.15 1629.20 983.72 Z M 1521.95 1069.85 C 1496.54 1075.79 1502.15 1061.60 1518.32 1050.05 C 1537.13 1034.54 1579.04 1008.80 1603.13 1002.20 C 1587.95 1030.25 1553.63 1060.94 1521.95 1069.85 Z M 1594.55 965.57 C 1600.49 957.32 1616 950.72 1624.58 950.72 C 1612.37 962.93 1588.61 976.79 1594.55 965.57 Z M 1714.34 956.33 C 1718.63 961.61 1721.60 959.96 1724.24 957.65 C 1738.10 947.42 1749.32 933.23 1758.89 917.06 C 1760.87 913.76 1761.86 909.47 1762.52 905.18 C 1763.51 898.25 1758.23 893.30 1752.95 894.95 C 1751.30 895.94 1749.98 896.60 1748.33 897.92 C 1745.69 899.57 1743.38 901.88 1741.07 904.19 C 1724.57 920.69 1711.04 936.53 1698.17 957.65 C 1694.21 964.91 1693.22 961.61 1685.63 962.60 C 1674.74 963.26 1677.38 975.47 1685.63 975.80 C 1677.71 992.63 1666.82 1015.07 1656.59 1036.19 C 1654.94 1039.49 1653.95 1043.12 1652.96 1046.75 C 1651.64 1056.32 1657.25 1063.25 1665.17 1061.93 C 1669.46 1060.61 1673.42 1059.29 1676.72 1057.64 C 1696.52 1045.43 1713.68 1028.60 1727.54 1008.47 C 1733.48 999.56 1739.75 987.35 1738.43 973.49 C 1749.98 970.85 1762.19 970.52 1776.05 971.51 C 1778.36 971.51 1781 970.85 1780.67 967.88 C 1780.34 962.60 1778.03 961.94 1775.39 962.27 C 1757.24 965.24 1727.54 967.55 1706.09 963.92 C 1714.34 947.75 1743.38 912.77 1751.96 909.47 C 1742.39 928.94 1728.53 943.13 1714.34 956.33 Z M 1729.85 973.82 C 1729.85 980.42 1727.21 989.99 1725.56 993.29 C 1711.04 1016.06 1693.88 1034.87 1672.76 1048.07 C 1669.79 1049.39 1666.16 1050.05 1663.19 1051.37 C 1662.86 1051.04 1662.20 1050.71 1662.20 1049.72 C 1662.53 1048.40 1662.53 1046.09 1663.19 1044.77 C 1669.79 1031.24 1675.73 1017.38 1682 1003.85 C 1684.64 998.90 1691.90 982.07 1695.53 977.45 C 1700.15 971.51 1718.63 976.13 1729.85 973.82 Z M 1850.30 970.85 C 1857.56 961.94 1844.36 967.88 1840.07 969.20 C 1830.83 972.17 1816.31 978.44 1820.60 961.94 C 1821.59 959.30 1822.58 956.33 1823.57 953.36 C 1824.89 950.72 1824.56 948.08 1821.92 947.09 C 1820.27 946.10 1817.30 946.10 1815.98 947.09 C 1813.67 947.75 1812.35 950.06 1810.70 951.05 C 1803.11 957.32 1795.52 963.26 1787.93 969.20 C 1786.61 969.86 1785.29 969.86 1782.65 971.18 C 1784.30 968.54 1785.29 966.89 1785.95 965.57 C 1788.59 962.27 1791.23 958.97 1793.21 955.67 C 1794.86 953.36 1795.19 951.05 1793.21 949.07 C 1791.23 947.75 1788.92 948.74 1786.94 950.39 C 1781.99 956.33 1776.71 962.27 1773.74 969.86 C 1773.08 971.51 1772.75 973.82 1772.75 975.47 C 1772.75 979.76 1775.06 982.07 1779.35 982.07 C 1781.66 982.07 1783.97 981.41 1785.95 980.42 C 1791.23 978.11 1795.52 974.48 1800.14 971.51 C 1803.44 969.53 1806.08 967.22 1809.38 964.91 C 1809.71 966.56 1810.04 966.89 1810.04 967.88 C 1809.05 987.02 1837.10 982.07 1850.30 970.85 Z M 1854.92 1015.73 C 1849.97 1020.02 1838.09 1024.97 1842.05 1009.79 C 1843.37 1004.18 1845.02 998.24 1846.67 992.63 C 1853.27 976.13 1861.85 960.62 1870.76 944.78 C 1875.05 938.51 1880 933.56 1885.28 928.61 C 1902.77 913.43 1919.27 897.59 1933.46 879.11 C 1936.43 874.82 1938.74 870.20 1941.05 865.25 C 1942.70 862.28 1942.70 858.65 1939.73 856.01 C 1936.76 853.70 1933.46 854.69 1930.49 856.01 C 1928.18 857 1925.87 858.32 1924.55 859.97 C 1921.58 862.28 1918.61 864.92 1915.97 867.56 C 1900.79 883.07 1888.25 901.55 1875.71 919.37 C 1870.76 925.97 1867.13 933.89 1858.88 937.52 C 1858.55 937.85 1857.89 938.84 1857.23 940.16 C 1860.86 943.79 1858.55 947.42 1856.24 951.38 C 1854.59 953.69 1852.94 956.66 1851.62 959.63 C 1843.70 974.81 1836.11 989.99 1832.81 1007.15 C 1831.82 1010.45 1831.49 1014.08 1831.82 1017.38 C 1832.48 1025.63 1837.76 1030.25 1846.01 1027.94 C 1848.32 1027.28 1850.63 1025.96 1852.28 1024.97 C 1855.91 1022.33 1860.20 1019.69 1863.50 1016.39 C 1876.04 1004.18 1889.90 992.63 1900.79 978.11 C 1912.01 963.26 1907.06 959.96 1895.51 971.84 C 1883.96 983.39 1868.78 1001.21 1854.92 1015.73 Z M 1924.88 872.84 C 1949.30 856.01 1895.18 913.10 1884.62 923.33 C 1886.60 913.76 1916.96 880.43 1924.88 872.84 Z M 2027.84 964.25 C 2027.51 962.93 2027.18 961.28 2026.85 959.96 C 2024.21 952.37 2018.93 949.73 2011.67 952.70 C 2009.03 954.02 2006.39 955.34 2003.75 957.32 C 1999.79 959.96 1992.20 969.53 1988.57 971.84 C 1988.90 967.88 1994.51 957.98 1996.16 954.68 C 1996.82 952.70 1997.81 950.72 1998.47 948.41 C 1998.47 946.76 1997.15 944.78 1996.16 944.45 C 1994.84 943.79 1992.86 944.78 1991.54 945.77 C 1990.55 946.43 1989.89 948.41 1989.56 949.73 C 1983.95 959.96 1979 969.53 1974.05 979.43 C 1972.73 981.41 1972.07 982.73 1971.74 984.71 C 1971.08 989 1974.05 991.31 1978.01 989.99 C 1980.32 988.67 1981.97 987.02 1983.95 985.37 C 1992.53 978.44 2001.77 967.22 2010.35 960.62 C 2018.27 955.01 2015.96 958.97 2018.93 966.23 C 2021.24 973.16 2025.53 975.80 2032.46 973.82 C 2035.76 973.16 2039.39 971.84 2042.36 969.86 C 2051.27 964.91 2062.16 956.99 2071.07 952.04 C 2079.98 946.10 2078.66 951.05 2078.66 960.29 C 2078.66 962.93 2078.33 964.91 2078.33 967.55 C 2078.66 979.10 2084.60 984.71 2096.48 983.39 C 2106.05 982.40 2114.63 978.44 2122.88 973.82 C 2128.16 971.84 2128.82 968.21 2127.50 966.23 C 2126.51 964.58 2124.53 964.25 2119.25 965.90 C 2113.64 967.88 2105.72 971.84 2099.78 973.16 C 2091.20 975.80 2086.58 973.49 2087.57 963.59 C 2088.23 959.63 2088.23 955.01 2087.24 951.05 C 2086.25 944.45 2081.63 941.81 2075.36 943.13 C 2071.40 943.79 2067.11 945.77 2063.48 947.75 C 2054.24 952.37 2045.66 957.65 2036.42 962.93 C 2033.78 964.25 2031.14 965.90 2027.84 964.25 Z M 2162.48 966.89 C 2163.80 963.92 2164.79 961.94 2165.78 959.96 C 2166.44 956 2168.42 952.04 2168.42 948.74 C 2168.75 941.48 2164.46 938.18 2157.20 938.84 C 2151.92 939.17 2148.29 941.48 2144.66 944.12 C 2136.08 951.05 2127.83 957.98 2122.22 966.89 C 2106.05 992.63 2118.26 1000.55 2130.14 996.92 C 2138.39 994.28 2143.01 988.34 2152.25 979.76 C 2153.90 977.78 2155.88 976.79 2158.19 976.46 C 2166.11 974.81 2174.36 973.82 2182.61 972.17 C 2186.90 971.84 2190.53 971.18 2194.82 970.19 C 2195.81 970.19 2198.12 968.21 2198.12 967.55 C 2198.45 965.90 2197.13 963.92 2195.81 963.26 C 2193.83 962.60 2193.17 962.60 2190.86 962.60 C 2186.90 963.26 2180.96 963.92 2177.33 964.58 C 2172.71 965.57 2167.76 965.90 2162.48 966.89 Z M 2130.80 968.54 C 2132.12 974.81 2136.74 976.79 2143.67 976.79 C 2135.09 995.60 2115.62 986.69 2130.80 968.54 Z M 2158.85 946.76 C 2158.85 949.40 2159.51 951.38 2158.85 952.04 C 2157.53 956 2155.55 960.62 2152.91 964.25 C 2151.26 967.88 2145.32 968.21 2142.68 965.57 C 2140.37 963.92 2140.70 961.94 2141.69 960.29 C 2145.32 954.02 2150.60 949.40 2158.85 946.76 Z M 2238.05 964.25 C 2237.72 962.93 2237.39 961.28 2237.06 959.96 C 2234.42 952.37 2229.14 949.73 2221.88 952.70 C 2219.24 954.02 2216.60 955.34 2213.96 957.32 C 2210 959.96 2202.41 969.53 2198.78 971.84 C 2199.11 967.88 2204.72 957.98 2206.37 954.68 C 2207.03 952.70 2208.02 950.72 2208.68 948.41 C 2208.68 946.76 2207.36 944.78 2206.37 944.45 C 2205.05 943.79 2203.07 944.78 2201.75 945.77 C 2200.76 946.43 2200.10 948.41 2199.77 949.73 C 2194.16 959.96 2189.21 969.53 2184.26 979.43 C 2182.94 981.41 2182.28 982.73 2181.95 984.71 C 2181.29 989 2184.26 991.31 2188.22 989.99 C 2190.53 988.67 2192.18 987.02 2194.16 985.37 C 2202.74 978.44 2211.98 967.22 2220.56 960.62 C 2228.48 955.01 2226.17 958.97 2229.14 966.23 C 2231.45 973.16 2235.74 975.80 2242.67 973.82 C 2245.97 973.16 2249.60 971.84 2252.57 969.86 C 2261.48 964.91 2272.37 956.99 2281.28 952.04 C 2290.19 946.10 2288.87 951.05 2288.87 960.29 C 2288.87 962.93 2288.54 964.91 2288.54 967.55 C 2288.87 979.10 2294.81 984.71 2306.69 983.39 C 2316.26 982.40 2324.84 978.44 2333.09 973.82 C 2338.37 971.84 2339.03 968.21 2337.71 966.23 C 2336.72 964.58 2334.74 964.25 2329.46 965.90 C 2323.85 967.88 2315.93 971.84 2309.99 973.16 C 2301.41 975.80 2296.79 973.49 2297.78 963.59 C 2298.44 959.63 2298.44 955.01 2297.45 951.05 C 2296.46 944.45 2291.84 941.81 2285.57 943.13 C 2281.61 943.79 2277.32 945.77 2273.69 947.75 C 2264.45 952.37 2255.87 957.65 2246.63 962.93 C 2243.99 964.25 2241.35 965.90 2238.05 964.25 Z M 2399.42 966.89 C 2390.18 975.47 2348.93 984.05 2340.35 975.47 C 2337.38 972.50 2337.38 968.87 2343.98 968.87 C 2348.27 968.87 2352.89 968.54 2356.85 967.55 C 2362.13 965.90 2367.08 963.92 2371.37 961.28 C 2374.34 959.63 2375.66 956.66 2375 953.36 C 2374.34 950.06 2371.70 948.08 2368.40 947.75 C 2360.48 947.75 2351.57 949.07 2343.65 952.70 C 2336.39 956.66 2334.74 958.97 2331.77 967.55 C 2327.15 985.37 2345.30 986.69 2357.18 986.03 C 2374.67 985.04 2392.82 980.75 2408.99 972.50 C 2410.97 971.51 2411.96 969.20 2410.97 966.89 C 2409.65 964.58 2408 964.25 2405.36 964.58 C 2403.38 965.24 2401.40 965.90 2399.42 966.89 Z M 2366.09 957.32 C 2360.81 962.27 2347.94 965.24 2341.34 964.58 C 2352.23 957.32 2372.03 949.73 2366.09 957.32 Z M 2462.45 989.33 C 2453.54 992.96 2453.21 989 2456.18 980.75 C 2459.15 974.15 2464.10 968.54 2463.11 961.61 C 2461.79 947.09 2448.26 951.38 2439.02 956 C 2428.13 961.28 2416.91 968.87 2407.34 976.79 C 2396.45 986.03 2411.63 970.19 2413.94 966.89 C 2417.24 962.60 2419.88 957.65 2422.85 953.03 C 2426.15 947.75 2426.81 944.78 2424.83 943.46 C 2422.85 941.48 2419.88 943.46 2416.58 947.75 C 2415.92 949.40 2415.26 950.39 2414.27 951.71 C 2410.31 957.65 2406.35 963.59 2402.06 969.20 C 2398.76 974.48 2395.46 979.76 2391.83 985.04 C 2390.18 987.02 2389.52 989.66 2391.83 991.97 C 2394.47 994.61 2397.11 992.96 2399.09 991.97 C 2400.74 991.31 2401.73 989.99 2402.72 989 C 2409.65 984.05 2415.92 979.10 2422.52 974.48 C 2429.45 970.19 2437.04 965.90 2444.30 961.94 C 2458.16 957.32 2454.53 964.58 2450.57 974.15 C 2449.58 978.11 2447.60 981.08 2446.61 985.37 C 2445.62 990.98 2447.27 994.61 2451.23 996.59 C 2455.52 998.24 2460.14 997.91 2464.76 995.93 C 2478.62 990.32 2492.81 984.38 2506.34 978.11 C 2519.21 972.17 2515.91 963.59 2502.05 969.86 C 2490.50 975.80 2474 985.04 2462.45 989.33 Z M 2507.99 894.95 C 2520.20 894.95 2536.37 894.62 2550.89 894.29 C 2538.68 913.76 2518.88 939.50 2508.65 963.92 C 2502.38 978.44 2493.14 1009.79 2522.84 999.56 C 2540 993.62 2562.44 977.45 2568.05 972.50 C 2570.36 970.52 2571.68 967.88 2570.03 965.24 C 2568.05 962.60 2566.07 963.92 2563.43 965.57 C 2561.45 966.56 2560.13 968.21 2558.15 969.53 C 2547.92 978.11 2531.75 989 2522.18 992.63 C 2500.73 1001.54 2511.62 975.47 2519.54 959.96 C 2529.11 941.81 2547.26 913.10 2562.44 893.96 C 2583.23 894.62 2665.07 895.28 2689.16 890.99 C 2698.40 889.01 2700.05 884.06 2689.16 883.40 C 2682.89 883.07 2673.32 884.06 2662.76 885.05 C 2629.43 888.68 2586.86 889.34 2568.05 886.04 C 2580.92 867.23 2576.30 871.85 2586.20 858.32 C 2586.86 857 2588.84 855.02 2589.17 853.37 C 2589.17 851.72 2588.84 848.75 2587.85 848.09 C 2585.21 845.78 2581.91 848.75 2580.59 851.39 C 2568.05 867.89 2570.03 866.90 2557.82 884.06 C 2557.49 884.72 2556.83 885.38 2556.17 885.71 C 2540.99 887.69 2524.82 887.69 2510.30 886.37 C 2501.06 885.71 2498.75 888.35 2497.43 890.33 C 2496.77 891.65 2497.76 896.27 2507.99 894.95 Z"/>
</svg>