<?xml version="1.0" encoding="UTF-8"?>
<svg id="Layer_1" xmlns="http://www.w3.org/2000/svg" version="1.1" viewBox="0 0 3306.03 1083.09">
  <!-- Generator: Adobe Illustrator 30.3.0, SVG Export Plug-In . SVG Version: 2.1.3 Build 182)  -->
  <defs>
    <style>
      .st0 {
        fill: #201c1f;
      }
    </style>
  </defs>
  <path class="st0" d="M355.9,492.46c.9-.9.9-2.7.9-2.7-2.7-1.8-4.5-3.6-8.1-5.4-23.4-12.6-47.7-19.8-74.7-21.6-31.5-2.7-63.9-1.8-93.6,10.8-51.3,20.7-64.8,65.7-34.2,110.7,15.3,23.4,35.1,41.4,56.7,57.6,77.4,56.7,164.7,83.7,260.1,80.1,33.3-.9,66.6-6.3,96.3-22.5,36.9-20.7,55.8-51.3,52.2-94.5-.9-11.7-2.7-22.5-7.2-35.1-9-33.3-26.1-64.8-45-93.6-19.8-31.5-39.6-61.2-58.5-91.8-13.5-21.6-23.4-43.2-28.8-68.4-8.1-34.2,0-62.1,27-85.5,8.1-7.2,18-14.4,27.9-19.8,51.3-28.8,107.1-43.2,165.6-45,13.5,0,27,1.8,40.5,5.4,22.5,3.6,33.3,19.8,34.2,41.4,1.8,17.1-1.8,32.4-10.8,46.8-12.6,20.7-26.1,40.5-42.3,59.4-23.4,26.1-49.5,51.3-74.7,76.5-1.8,2.7-7.2,5.4-4.5,11.7,11.7,0,18.9-7.2,26.1-14.4,26.1-23.4,53.1-49.5,77.4-75.6,13.5-12.6,25.2-30.6,35.1-45.9,11.7-18.9,17.1-40.5,15.3-62.1-1.8-29.7-17.1-48.6-45-57.6-10.8-4.5-23.4-5.4-34.2-5.4-62.1-3.6-119.7,10.8-175.5,36-20.7,9.9-40.5,22.5-56.7,39.6-27,27.9-36,60.3-27,99,9,41.4,32.4,77.4,54.9,112.5,18.9,31.5,38.7,61.2,57.6,91.8,12.6,20.7,20.7,42.3,24.3,66.6,6.3,39.6-1.8,69.3-46.8,90.9-.9.9-1.8.9-3.6.9-22.5,9.9-45,14.4-68.4,15.3-61.2,3.6-118.8-7.2-174.6-31.5-41.4-18.9-80.1-42.3-111.6-74.7-11.7-12.6-21.6-24.3-26.1-39.6-7.2-20.7-1.8-36.9,16.2-48.6,14.4-9.9,31.5-16.2,48.6-18,25.2-1.8,51.3,0,75.6,1.8,19.8,1.8,39.6,2.7,59.4,4.5ZM773.5,244.06c33.3,0,77.4-.9,117-1.8-33.3,53.1-87.3,123.3-115.2,189.9-17.1,39.6-42.3,125.1,38.7,97.2,46.8-16.2,108-60.3,123.3-73.8,6.3-5.4,9.9-12.6,5.4-19.8-5.4-7.2-10.8-3.6-18,.9-5.4,2.7-9,7.2-14.4,10.8-27.9,23.4-72,53.1-98.1,63-58.5,24.3-28.8-46.8-7.2-89.1,26.1-49.5,75.6-127.8,117-180,56.7,1.8,279.9,3.6,345.6-8.1,25.2-5.4,29.7-18.9,0-20.7-17.1-.9-43.2,1.8-72,4.5-90.9,9.9-207,11.7-258.3,2.7,35.1-51.3,22.5-38.7,49.5-75.6,1.8-3.6,7.2-9,8.1-13.5,0-4.5-.9-12.6-3.6-14.4-7.2-6.3-16.2,1.8-19.8,9-34.2,45-28.8,42.3-62.1,89.1-.9,1.8-2.7,3.6-4.5,4.5-41.4,5.4-85.5,5.4-125.1,1.8-25.2-1.8-31.5,5.4-35.1,10.8-1.8,3.6.9,16.2,28.8,12.6ZM1132.6,451.06c19.8-24.3-16.2-8.1-27.9-4.5-25.2,8.1-64.8,25.2-53.1-19.8,2.7-7.2,5.4-15.3,8.1-23.4,3.6-7.2,2.7-14.4-4.5-17.1-4.5-2.7-12.6-2.7-16.2,0-6.3,1.8-9.9,8.1-14.4,10.8-20.7,17.1-41.4,33.3-62.1,49.5-3.6,1.8-7.2,1.8-14.4,5.4,4.5-7.2,7.2-11.7,9-15.3,7.2-9,14.4-18,19.8-27,4.5-6.3,5.4-12.6,0-18-5.4-3.6-11.7-.9-17.1,3.6-13.5,16.2-27.9,32.4-36,53.1-1.8,4.5-2.7,10.8-2.7,15.3,0,11.7,6.3,18,18,18,6.3,0,12.6-1.8,18-4.5,14.4-6.3,26.1-16.2,38.7-24.3,9-5.4,16.2-11.7,25.2-18,.9,4.5,1.8,5.4,1.8,8.1-2.7,52.2,73.8,38.7,109.8,8.1ZM1189.3,598.66c4.5-29.7,13.5-49.5,24.3-70.2,42.3-86.4,91.8-168.3,144.9-250.2,6.3-10.8,14.4-23.4,22.5-34.2,8.1-14.4,8.1-23.4,0-27.9-6.3-3.6-14.4,0-23.4,11.7-3.6,3.6-6.3,9-8.1,12.6-30.6,46.8-60.3,92.7-97.2,134.1-9.9,9.9-20.7,17.1-35.1,18.9-9.9,0-18.9,2.7-27,6.3-26.1,9-49.5,24.3-65.7,45.9-3.6,8.1-8.1,17.1-9,25.2-.9,14.4,9.9,24.3,25.2,21.6,7.2-.9,14.4-4.5,20.7-7.2,19.8-14.4,39.6-29.7,58.5-45,4.5-3.6,9-7.2,14.4-11.7,0,5.4-1.8,9-3.6,13.5-18,36-36,73.8-53.1,109.8-6.3,13.5-9,27-11.7,41.4-3.6,21.6,14.4,34.2,35.1,27,9-2.7,18.9-8.1,27-13.5,57.6-39.6,106.2-89.1,154.8-138.6,29.7-29.7,12.6-39.6-14.4-15.3-25.2,25.2-57.6,52.2-83.7,75.6-22.5,20.7-46.8,39.6-71.1,57.6-4.5,5.4-12.6,7.2-24.3,12.6ZM1145.2,463.66c9.9-18.9,28.8-31.5,49.5-37.8-8.1,14.4-27,28.8-49.5,37.8ZM1510.6,461.86c20.7-10.8,4.5-40.5-19.8-14.4-18.9,20.7-118.8,72.9-82.8-.9,11.7-19.8,24.3-37.8,36-56.7,18.9-25.2-9.9-41.4-21.6-26.1-15.3,20.7-25.2,49.5-38.7,71.1-6.3,8.1-7.2,19.8-7.2,29.7-2.7,15.3,6.3,30.6,22.5,33.3,9,1.8,19.8.9,28.8,0,29.7-7.2,56.7-21.6,82.8-36ZM1489,291.76c-20.7,0-30.6,16.2-32.4,30.6-4.5,22.5,1.8,23.4,18.9,13.5,11.7-7.2,24.3-19.8,27-28.8,1.8-8.1-3.6-15.3-13.5-15.3ZM1612.3,440.26c3.6-8.1,6.3-13.5,9-18.9,1.8-10.8,7.2-21.6,7.2-30.6.9-19.8-10.8-28.8-30.6-27-14.4.9-24.3,7.2-34.2,14.4-23.4,18.9-45.9,37.8-61.2,62.1-44.1,70.2-10.8,91.8,21.6,81.9,22.5-7.2,35.1-23.4,60.3-46.8,4.5-5.4,9.9-8.1,16.2-9,21.6-4.5,44.1-7.2,66.6-11.7,11.7-.9,21.6-2.7,33.3-5.4,2.7,0,9-5.4,9-7.2.9-4.5-2.7-9.9-6.3-11.7-5.4-1.8-7.2-1.8-13.5-1.8-10.8,1.8-27,3.6-36.9,5.4-12.6,2.7-26.1,3.6-40.5,6.3ZM1525.9,444.76c3.6,17.1,16.2,22.5,35.1,22.5-23.4,51.3-76.5,27-35.1-22.5ZM1602.4,385.36c0,7.2,1.8,12.6,0,14.4-3.6,10.8-9,23.4-16.2,33.3-4.5,9.9-20.7,10.8-27.9,3.6-6.3-4.5-5.4-9.9-2.7-14.4,9.9-17.1,24.3-29.7,46.8-36.9ZM1912.9,539.26c44.1-2.7,49.5-29.7,2.7-27-72,3.6-144.9,6.3-217.8,8.1-4.5.9-10.8.9-14.4,2.7-3.6,2.7-6.3,5.4-6.3,9.9-.9,2.7,1.8,8.1,6.3,9.9,4.5,1.8,11.7,1.8,17.1,1.8,13.5,0,27-.9,39.6-.9l172.8-4.5ZM2184.7,433.06c-.9-3.6-1.8-8.1-2.7-11.7-7.2-20.7-21.6-27.9-41.4-19.8-7.2,3.6-14.4,7.2-21.6,12.6-10.8,7.2-31.5,33.3-41.4,39.6.9-10.8,16.2-37.8,20.7-46.8,1.8-5.4,4.5-10.8,6.3-17.1,0-4.5-3.6-9.9-6.3-10.8-3.6-1.8-9,.9-12.6,3.6-2.7,1.8-4.5,7.2-5.4,10.8-15.3,27.9-28.8,54-42.3,81-3.6,5.4-5.4,9-6.3,14.4-1.8,11.7,6.3,18,17.1,14.4,6.3-3.6,10.8-8.1,16.2-12.6,23.4-18.9,48.6-49.5,72-67.5,21.6-15.3,15.3-4.5,23.4,15.3,6.3,18.9,18,26.1,36.9,20.7,9-1.8,18.9-5.4,27-10.8,24.3-13.5,54-35.1,78.3-48.6,24.3-16.2,20.7-2.7,20.7,22.5,0,7.2-.9,12.6-.9,19.8.9,31.5,17.1,46.8,49.5,43.2,26.1-2.7,49.5-13.5,72-26.1,14.4-5.4,16.2-15.3,12.6-20.7-2.7-4.5-8.1-5.4-22.5-.9-15.3,5.4-36.9,16.2-53.1,19.8-23.4,7.2-36,.9-33.3-26.1,1.8-10.8,1.8-23.4-.9-34.2-2.7-18-15.3-25.2-32.4-21.6-10.8,1.8-22.5,7.2-32.4,12.6-25.2,12.6-48.6,27-73.8,41.4-7.2,3.6-14.4,8.1-23.4,3.6ZM2624.8,440.26c-25.2,23.4-137.7,46.8-161.1,23.4-8.1-8.1-8.1-18,9.9-18,11.7,0,24.3-.9,35.1-3.6,14.4-4.5,27.9-9.9,39.6-17.1,8.1-4.5,11.7-12.6,9.9-21.6-1.8-9-9-14.4-18-15.3-21.6,0-45.9,3.6-67.5,13.5-19.8,10.8-24.3,17.1-32.4,40.5-12.6,48.6,36.9,52.2,69.3,50.4,47.7-2.7,97.2-14.4,141.3-36.9,5.4-2.7,8.1-9,5.4-15.3-3.6-6.3-8.1-7.2-15.3-6.3-5.4,1.8-10.8,3.6-16.2,6.3ZM2533.9,414.16c-14.4,13.5-49.5,21.6-67.5,19.8,29.7-19.8,83.7-40.5,67.5-19.8ZM2884,451.96c8.1-3.6,3.6-10.8-2.7-12.6-5.4-.9-10.8,3.6-15.3,5.4-17.1,8.1-34.2,18.9-48.6,22.5-54.9,16.2-8.1-70.2-.9-85.5,3.6-6.3,6.3-11.7,7.2-18,.9-5.4-.9-9.9-3.6-13.5-3.6-1.8-9.9-1.8-13.5-.9-3.6.9-7.2,5.4-9.9,9-8.1,8.1-16.2,17.1-24.3,25.2-5.4,6.3-12.6,8.1-18.9,7.2-43.2-3.6-80.1,10.8-111.6,37.8-7.2,6.3-11.7,11.7-17.1,18.9-6.3,9-9,18.9-2.7,29.7,5.4,9.9,16.2,13.5,27.9,11.7,8.1-.9,18-1.8,25.2-7.2,31.5-16.2,60.3-36,90.9-54.9-1.8,11.7-3.6,21.6-3.6,31.5,0,62.1,94.5,18.9,121.5-6.3ZM2647.3,462.76c20.7-30.6,65.7-51.3,101.7-54-24.3,23.4-66.6,47.7-101.7,54ZM3034.3,501.46c-24.3,9.9-25.2-.9-17.1-23.4,8.1-18,21.6-33.3,18.9-52.2-3.6-39.6-40.5-27.9-65.7-15.3-29.7,14.4-60.3,35.1-86.4,56.7-29.7,25.2,11.7-18,18-27,9-11.7,16.2-25.2,24.3-37.8,9-14.4,10.8-22.5,5.4-26.1-5.4-5.4-13.5,0-22.5,11.7-1.8,4.5-3.6,7.2-6.3,10.8-10.8,16.2-21.6,32.4-33.3,47.7-9,14.4-18,28.8-27.9,43.2-4.5,5.4-6.3,12.6,0,18.9,7.2,7.2,14.4,2.7,19.8,0,4.5-1.8,7.2-5.4,9.9-8.1,18.9-13.5,36-27,54-39.6,18.9-11.7,39.6-23.4,59.4-34.2,37.8-12.6,27.9,7.2,17.1,33.3-2.7,10.8-8.1,18.9-10.8,30.6-2.7,15.3,1.8,25.2,12.6,30.6,11.7,4.5,24.3,3.6,36.9-1.8,37.8-15.3,76.5-31.5,113.4-48.6,35.1-16.2,26.1-39.6-11.7-22.5-31.5,16.2-76.5,41.4-108,53.1Z"/>
  <path class="st0" d="M726.57,864.81c-.33-1.32-.66-2.97-.99-4.29-2.64-7.59-7.92-10.23-15.18-7.26-2.64,1.32-5.28,2.64-7.92,4.62-3.96,2.64-11.55,12.21-15.18,14.52.33-3.96,5.94-13.86,7.59-17.16.66-1.98,1.65-3.96,2.31-6.27,0-1.65-1.32-3.63-2.31-3.96-1.32-.66-3.3.33-4.62,1.32-.99.66-1.65,2.64-1.98,3.96-5.61,10.23-10.56,19.8-15.51,29.7-1.32,1.98-1.98,3.3-2.31,5.28-.66,4.29,2.31,6.6,6.27,5.28,2.31-1.32,3.96-2.97,5.94-4.62,8.58-6.93,17.82-18.15,26.4-24.75,7.92-5.61,5.61-1.65,8.58,5.61,2.31,6.93,6.6,9.57,13.53,7.59,3.3-.66,6.93-1.98,9.9-3.96,8.91-4.95,19.8-12.87,28.71-17.82,8.91-5.94,7.59-.99,7.59,8.25,0,2.64-.33,4.62-.33,7.26.33,11.55,6.27,17.16,18.15,15.84,9.57-.99,18.15-4.95,26.4-9.57,5.28-1.98,5.94-5.61,4.62-7.59-.99-1.65-2.97-1.98-8.25-.33-5.61,1.98-13.53,5.94-19.47,7.26-8.58,2.64-13.2.33-12.21-9.57.66-3.96.66-8.58-.33-12.54-.99-6.6-5.61-9.24-11.88-7.92-3.96.66-8.25,2.64-11.88,4.62-9.24,4.62-17.82,9.9-27.06,15.18-2.64,1.32-5.28,2.97-8.58,1.32ZM912.36,871.74c2.97-1.32,1.32-3.96-.99-4.62-1.98-.33-3.96,1.32-5.61,1.98-6.27,2.97-12.54,6.93-17.82,8.25-20.13,5.94-2.97-25.74-.33-31.35,1.32-2.31,2.31-4.29,2.64-6.6.33-1.98-.33-3.63-1.32-4.95-1.32-.66-3.63-.66-4.95-.33-1.32.33-2.64,1.98-3.63,3.3-2.97,2.97-5.94,6.27-8.91,9.24-1.98,2.31-4.62,2.97-6.93,2.64-15.84-1.32-29.37,3.96-40.92,13.86-2.64,2.31-4.29,4.29-6.27,6.93-2.31,3.3-3.3,6.93-.99,10.89,1.98,3.63,5.94,4.95,10.23,4.29,2.97-.33,6.6-.66,9.24-2.64,11.55-5.94,22.11-13.2,33.33-20.13-.66,4.29-1.32,7.92-1.32,11.55,0,22.77,34.65,6.93,44.55-2.31ZM825.57,875.7c7.59-11.22,24.09-18.81,37.29-19.8-8.91,8.58-24.42,17.49-37.29,19.8ZM914.67,854.25c-.66,1.65-.99,2.64-1.65,3.96-4.95,9.24-10.23,18.81-15.18,28.38-6.27,13.86-13.2,27.39-19.8,41.25-.33,1.32-1.65,2.64-.66,3.63,0,1.65.66,3.96,1.65,4.29,1.32.99,3.96.33,4.95,0,1.98-.66,2.97-2.64,3.96-3.96,14.19-18.48,30.69-34.98,48.18-51.15,2.97-2.31,4.62-2.64,7.92-.99,19.8,8.58,38.94,5.94,56.43-4.95,3.96-2.31,5.94-5.28,6.6-9.9-2.64.33-4.62.33-7.26,1.32-2.97,1.32-6.27,2.97-9.24,4.29-8.25,3.96-16.17,6.27-25.08,5.61-5.61-.33-11.55-.66-16.83-4.62,2.97-1.65,5.28-2.31,7.59-3.96,8.25-4.62,16.17-8.91,25.08-14.19,1.98-.99,3.96-2.64,5.61-4.62,1.65-1.65,2.31-3.63.66-5.61-1.65-1.32-3.3-2.31-5.28-2.31-2.64,0-5.61.99-7.59,2.31-7.92,4.95-15.84,9.57-23.76,14.52-5.61,3.63-10.89,7.59-18.81,7.59-3.96,0-5.94,2.97-3.96,6.6,0,1.32.33,1.98.99,3.3-4.62,6.93-38.61,42.9-37.29,40.59,8.91-16.83,30.03-53.46,39.27-69.96,1.65-3.3,4.29-6.27,7.26-9.24,19.47-17.16,36.63-35.64,51.81-56.43,2.97-4.29,4.95-9.24,6.93-13.53,1.65-2.64.66-4.95-1.32-6.93-1.98-1.98-4.95-1.98-7.26-.99-2.64,1.32-5.61,2.97-7.92,4.62-8.58,6.6-15.51,14.52-21.78,23.1-10.23,14.85-20.46,30.03-30.36,44.88-3.3,5.61-7.59,10.56-13.53,14.52-4.62,3.63-5.61,3.96-.33,8.58ZM945.36,822.24c7.92-14.52,31.68-46.2,39.93-50.16,9.57-3.96-16.5,28.05-39.93,50.16ZM1069.44,867.45c-9.24,8.58-50.49,17.16-59.07,8.58-2.97-2.97-2.97-6.6,3.63-6.6,4.29,0,8.91-.33,12.87-1.32,5.28-1.65,10.23-3.63,14.52-6.27,2.97-1.65,4.29-4.62,3.63-7.92-.66-3.3-3.3-5.28-6.6-5.61-7.92,0-16.83,1.32-24.75,4.95-7.26,3.96-8.91,6.27-11.88,14.85-4.62,17.82,13.53,19.14,25.41,18.48,17.49-.99,35.64-5.28,51.81-13.53,1.98-.99,2.97-3.3,1.98-5.61-1.32-2.31-2.97-2.64-5.61-2.31-1.98.66-3.96,1.32-5.94,2.31ZM1036.11,857.88c-5.28,4.95-18.15,7.92-24.75,7.26,10.89-7.26,30.69-14.85,24.75-7.26ZM1199.46,864.81c-.33-1.32-.66-2.97-.99-4.29-2.64-7.59-7.92-10.23-15.18-7.26-2.64,1.32-5.28,2.64-7.92,4.62-3.96,2.64-11.55,12.21-15.18,14.52.33-3.96,5.94-13.86,7.59-17.16.66-1.98,1.65-3.96,2.31-6.27,0-1.65-1.32-3.63-2.31-3.96-1.32-.66-3.3.33-4.62,1.32-.99.66-1.65,2.64-1.98,3.96-5.61,10.23-10.56,19.8-15.51,29.7-1.32,1.98-1.98,3.3-2.31,5.28-.66,4.29,2.31,6.6,6.27,5.28,2.31-1.32,3.96-2.97,5.94-4.62,8.58-6.93,17.82-18.15,26.4-24.75,7.92-5.61,5.61-1.65,8.58,5.61,2.31,6.93,6.6,9.57,13.53,7.59,3.3-.66,6.93-1.98,9.9-3.96,8.91-4.95,19.8-12.87,28.71-17.82,8.91-5.94,7.59-.99,7.59,8.25,0,2.64-.33,4.62-.33,7.26.33,11.55,6.27,17.16,18.15,15.84,9.57-.99,18.15-4.95,26.4-9.57,5.28-1.98,5.94-5.61,4.62-7.59-.99-1.65-2.97-1.98-8.25-.33-5.61,1.98-13.53,5.94-19.47,7.26-8.58,2.64-13.2.33-12.21-9.57.66-3.96.66-8.58-.33-12.54-.99-6.6-5.61-9.24-11.88-7.92-3.96.66-8.25,2.64-11.88,4.62-9.24,4.62-17.82,9.9-27.06,15.18-2.64,1.32-5.28,2.97-8.58,1.32ZM1360.83,867.45c-9.24,8.58-50.49,17.16-59.07,8.58-2.97-2.97-2.97-6.6,3.63-6.6,4.29,0,8.91-.33,12.87-1.32,5.28-1.65,10.23-3.63,14.52-6.27,2.97-1.65,4.29-4.62,3.63-7.92-.66-3.3-3.3-5.28-6.6-5.61-7.92,0-16.83,1.32-24.75,4.95-7.26,3.96-8.91,6.27-11.88,14.85-4.62,17.82,13.53,19.14,25.41,18.48,17.49-.99,35.64-5.28,51.81-13.53,1.98-.99,2.97-3.3,1.98-5.61-1.32-2.31-2.97-2.64-5.61-2.31-1.98.66-3.96,1.32-5.94,2.31ZM1327.5,857.88c-5.28,4.95-18.15,7.92-24.75,7.26,10.89-7.26,30.69-14.85,24.75-7.26ZM1455.87,871.74c2.97-1.32,1.32-3.96-.99-4.62-1.98-.33-3.96,1.32-5.61,1.98-6.27,2.97-12.54,6.93-17.82,8.25-20.13,5.94-2.97-25.74-.33-31.35,1.32-2.31,2.31-4.29,2.64-6.6.33-1.98-.33-3.63-1.32-4.95-1.32-.66-3.63-.66-4.95-.33-1.32.33-2.64,1.98-3.63,3.3-2.97,2.97-5.94,6.27-8.91,9.24-1.98,2.31-4.62,2.97-6.93,2.64-15.84-1.32-29.37,3.96-40.92,13.86-2.64,2.31-4.29,4.29-6.27,6.93-2.31,3.3-3.3,6.93-.99,10.89,1.98,3.63,5.94,4.95,10.23,4.29,2.97-.33,6.6-.66,9.24-2.64,11.55-5.94,22.11-13.2,33.33-20.13-.66,4.29-1.32,7.92-1.32,11.55,0,22.77,34.65,6.93,44.55-2.31ZM1369.08,875.7c7.59-11.22,24.09-18.81,37.29-19.8-8.91,8.58-24.42,17.49-37.29,19.8ZM1510.98,889.89c-8.91,3.63-9.24-.33-6.27-8.58,2.97-6.6,7.92-12.21,6.93-19.14-1.32-14.52-14.85-10.23-24.09-5.61-10.89,5.28-22.11,12.87-31.68,20.79-10.89,9.24,4.29-6.6,6.6-9.9,3.3-4.29,5.94-9.24,8.91-13.86,3.3-5.28,3.96-8.25,1.98-9.57-1.98-1.98-4.95,0-8.25,4.29-.66,1.65-1.32,2.64-2.31,3.96-3.96,5.94-7.92,11.88-12.21,17.49-3.3,5.28-6.6,10.56-10.23,15.84-1.65,1.98-2.31,4.62,0,6.93,2.64,2.64,5.28.99,7.26,0,1.65-.66,2.64-1.98,3.63-2.97,6.93-4.95,13.2-9.9,19.8-14.52,6.93-4.29,14.52-8.58,21.78-12.54,13.86-4.62,10.23,2.64,6.27,12.21-.99,3.96-2.97,6.93-3.96,11.22-.99,5.61.66,9.24,4.62,11.22,4.29,1.65,8.91,1.32,13.53-.66,13.86-5.61,28.05-11.55,41.58-17.82,12.87-5.94,9.57-14.52-4.29-8.25-11.55,5.94-28.05,15.18-39.6,19.47ZM1602.72,875.37c7.59-3.96,1.65-14.85-7.26-5.28-6.93,7.59-43.56,26.73-30.36-.33,4.29-7.26,8.91-13.86,13.2-20.79,6.93-9.24-3.63-15.18-7.92-9.57-5.61,7.59-9.24,18.15-14.19,26.07-2.31,2.97-2.64,7.26-2.64,10.89-.99,5.61,2.31,11.22,8.25,12.21,3.3.66,7.26.33,10.56,0,10.89-2.64,20.79-7.92,30.36-13.2ZM1594.8,813c-7.59,0-11.22,5.94-11.88,11.22-1.65,8.25.66,8.58,6.93,4.95,4.29-2.64,8.91-7.26,9.9-10.56.66-2.97-1.32-5.61-4.95-5.61ZM1659.15,889.89c-8.91,3.63-9.24-.33-6.27-8.58,2.97-6.6,7.92-12.21,6.93-19.14-1.32-14.52-14.85-10.23-24.09-5.61-10.89,5.28-22.11,12.87-31.68,20.79-10.89,9.24,4.29-6.6,6.6-9.9,3.3-4.29,5.94-9.24,8.91-13.86,3.3-5.28,3.96-8.25,1.98-9.57-1.98-1.98-4.95,0-8.25,4.29-.66,1.65-1.32,2.64-2.31,3.96-3.96,5.94-7.92,11.88-12.21,17.49-3.3,5.28-6.6,10.56-10.23,15.84-1.65,1.98-2.31,4.62,0,6.93,2.64,2.64,5.28.99,7.26,0,1.65-.66,2.64-1.98,3.63-2.97,6.93-4.95,13.2-9.9,19.8-14.52,6.93-4.29,14.52-8.58,21.78-12.54,13.86-4.62,10.23,2.64,6.27,12.21-.99,3.96-2.97,6.93-3.96,11.22-.99,5.61.66,9.24,4.62,11.22,4.29,1.65,8.91,1.32,13.53-.66,13.86-5.61,28.05-11.55,41.58-17.82,12.87-5.94,9.57-14.52-4.29-8.25-11.55,5.94-28.05,15.18-39.6,19.47ZM1741.65,886.92c5.94-11.55,11.55-24.42,17.16-37.29,1.32-2.97,1.65-5.61-.66-7.59-1.32-2.31-3.96-1.32-6.6-.66-1.98.66-3.63.66-5.61.99-2.64,0-5.61,0-8.25.66-9.9,2.64-18.81,6.93-26.73,14.19-3.63,2.64-6.6,6.27-8.91,9.9-1.98,2.64-2.64,5.94-.66,9.24,2.64,2.64,5.94,3.96,9.24,2.31,4.95-1.32,8.91-2.64,13.86-5.28,5.28-2.64,15.18-10.56,20.79-13.2-.66,0-1.65,10.56-8.91,21.45-3.96,7.92-11.88,13.86-20.46,16.5-22.44,9.57-45.54,19.14-66.66,33-7.26,5.61-15.18,10.89-22.77,17.16-3.63,3.3-7.26,7.92-9.57,12.54-4.29,7.26-.66,14.52,7.59,16.17,3.63.99,7.59,1.32,11.88.99,16.5-1.32,30.69-8.25,44.55-16.83,21.45-13.53,37.29-33,50.49-54.45,2.31-3.96,5.61-8.91,9.24-10.56,10.89-3.63,21.12-7.59,31.35-10.89,20.46-7.26,7.92-.33,28.38-7.26,2.31-.33,4.95-1.98,7.26-3.3,1.65-.99,3.3-3.63,1.65-5.61-1.32-1.65-3.96-2.31-5.61-2.64-1.32-.33-2.97.33-4.62.99-27.39,9.9-22.11,7.26-49.17,16.83l-8.25,2.64ZM1642.65,970.41c-25.41,5.94-19.8-8.25-3.63-19.8,18.81-15.51,60.72-41.25,84.81-47.85-15.18,28.05-49.5,58.74-81.18,67.65ZM1715.25,866.13c5.94-8.25,21.45-14.85,30.03-14.85-12.21,12.21-35.97,26.07-30.03,14.85ZM1835.04,856.89c4.29,5.28,7.26,3.63,9.9,1.32,13.86-10.23,25.08-24.42,34.65-40.59,1.98-3.3,2.97-7.59,3.63-11.88.99-6.93-4.29-11.88-9.57-10.23-1.65.99-2.97,1.65-4.62,2.97-2.64,1.65-4.95,3.96-7.26,6.27-16.5,16.5-30.03,32.34-42.9,53.46-3.96,7.26-4.95,3.96-12.54,4.95-10.89.66-8.25,12.87,0,13.2-7.92,16.83-18.81,39.27-29.04,60.39-1.65,3.3-2.64,6.93-3.63,10.56-1.32,9.57,4.29,16.5,12.21,15.18,4.29-1.32,8.25-2.64,11.55-4.29,19.8-12.21,36.96-29.04,50.82-49.17,5.94-8.91,12.21-21.12,10.89-34.98,11.55-2.64,23.76-2.97,37.62-1.98,2.31,0,4.95-.66,4.62-3.63-.33-5.28-2.64-5.94-5.28-5.61-18.15,2.97-47.85,5.28-69.3,1.65,8.25-16.17,37.29-51.15,45.87-54.45-9.57,19.47-23.43,33.66-37.62,46.86ZM1850.55,874.38c0,6.6-2.64,16.17-4.29,19.47-14.52,22.77-31.68,41.58-52.8,54.78-2.97,1.32-6.6,1.98-9.57,3.3-.33-.33-.99-.66-.99-1.65.33-1.32.33-3.63.99-4.95,6.6-13.53,12.54-27.39,18.81-40.92,2.64-4.95,9.9-21.78,13.53-26.4,4.62-5.94,23.1-1.32,34.32-3.63ZM1971,871.41c7.26-8.91-5.94-2.97-10.23-1.65-9.24,2.97-23.76,9.24-19.47-7.26.99-2.64,1.98-5.61,2.97-8.58,1.32-2.64.99-5.28-1.65-6.27-1.65-.99-4.62-.99-5.94,0-2.31.66-3.63,2.97-5.28,3.96-7.59,6.27-15.18,12.21-22.77,18.15-1.32.66-2.64.66-5.28,1.98,1.65-2.64,2.64-4.29,3.3-5.61,2.64-3.3,5.28-6.6,7.26-9.9,1.65-2.31,1.98-4.62,0-6.6-1.98-1.32-4.29-.33-6.27,1.32-4.95,5.94-10.23,11.88-13.2,19.47-.66,1.65-.99,3.96-.99,5.61,0,4.29,2.31,6.6,6.6,6.6,2.31,0,4.62-.66,6.6-1.65,5.28-2.31,9.57-5.94,14.19-8.91,3.3-1.98,5.94-4.29,9.24-6.6.33,1.65.66,1.98.66,2.97-.99,19.14,27.06,14.19,40.26,2.97ZM1975.62,916.29c-4.95,4.29-16.83,9.24-12.87-5.94,1.32-5.61,2.97-11.55,4.62-17.16,6.6-16.5,15.18-32.01,24.09-47.85,4.29-6.27,9.24-11.22,14.52-16.17,17.49-15.18,33.99-31.02,48.18-49.5,2.97-4.29,5.28-8.91,7.59-13.86,1.65-2.97,1.65-6.6-1.32-9.24-2.97-2.31-6.27-1.32-9.24,0-2.31.99-4.62,2.31-5.94,3.96-2.97,2.31-5.94,4.95-8.58,7.59-15.18,15.51-27.72,33.99-40.26,51.81-4.95,6.6-8.58,14.52-16.83,18.15-.33.33-.99,1.32-1.65,2.64,3.63,3.63,1.32,7.26-.99,11.22-1.65,2.31-3.3,5.28-4.62,8.25-7.92,15.18-15.51,30.36-18.81,47.52-.99,3.3-1.32,6.93-.99,10.23.66,8.25,5.94,12.87,14.19,10.56,2.31-.66,4.62-1.98,6.27-2.97,3.63-2.64,7.92-5.28,11.22-8.58,12.54-12.21,26.4-23.76,37.29-38.28,11.22-14.85,6.27-18.15-5.28-6.27-11.55,11.55-26.73,29.37-40.59,43.89ZM2045.58,773.4c24.42-16.83-29.7,40.26-40.26,50.49,1.98-9.57,32.34-42.9,40.26-50.49ZM2148.54,864.81c-.33-1.32-.66-2.97-.99-4.29-2.64-7.59-7.92-10.23-15.18-7.26-2.64,1.32-5.28,2.64-7.92,4.62-3.96,2.64-11.55,12.21-15.18,14.52.33-3.96,5.94-13.86,7.59-17.16.66-1.98,1.65-3.96,2.31-6.27,0-1.65-1.32-3.63-2.31-3.96-1.32-.66-3.3.33-4.62,1.32-.99.66-1.65,2.64-1.98,3.96-5.61,10.23-10.56,19.8-15.51,29.7-1.32,1.98-1.98,3.3-2.31,5.28-.66,4.29,2.31,6.6,6.27,5.28,2.31-1.32,3.96-2.97,5.94-4.62,8.58-6.93,17.82-18.15,26.4-24.75,7.92-5.61,5.61-1.65,8.58,5.61,2.31,6.93,6.6,9.57,13.53,7.59,3.3-.66,6.93-1.98,9.9-3.96,8.91-4.95,19.8-12.87,28.71-17.82,8.91-5.94,7.59-.99,7.59,8.25,0,2.64-.33,4.62-.33,7.26.33,11.55,6.27,17.16,18.15,15.84,9.57-.99,18.15-4.95,26.4-9.57,5.28-1.98,5.94-5.61,4.62-7.59-.99-1.65-2.97-1.98-8.25-.33-5.61,1.98-13.53,5.94-19.47,7.26-8.58,2.64-13.2.33-12.21-9.57.66-3.96.66-8.58-.33-12.54-.99-6.6-5.61-9.24-11.88-7.92-3.96.66-8.25,2.64-11.88,4.62-9.24,4.62-17.82,9.9-27.06,15.18-2.64,1.32-5.28,2.97-8.58,1.32ZM2283.18,867.45c1.32-2.97,2.31-4.95,3.3-6.93.66-3.96,2.64-7.92,2.64-11.22.33-7.26-3.96-10.56-11.22-9.9-5.28.33-8.91,2.64-12.54,5.28-8.58,6.93-16.83,13.86-22.44,22.77-16.17,25.74-3.96,33.66,7.92,30.03,8.25-2.64,12.87-8.58,22.11-17.16,1.65-1.98,3.63-2.97,5.94-3.3,7.92-1.65,16.17-2.64,24.42-4.29,4.29-.33,7.92-.99,12.21-1.98.99,0,3.3-1.98,3.3-2.64.33-1.65-.99-3.63-2.31-4.29-1.98-.66-2.64-.66-4.95-.66-3.96.66-9.9,1.32-13.53,1.98-4.62.99-9.57,1.32-14.85,2.31ZM2251.5,869.1c1.32,6.27,5.94,8.25,12.87,8.25-8.58,18.81-28.05,9.9-12.87-8.25ZM2279.55,847.32c0,2.64.66,4.62,0,5.28-1.32,3.96-3.3,8.58-5.94,12.21-1.65,3.63-7.59,3.96-10.23,1.32-2.31-1.65-1.98-3.63-.99-5.28,3.63-6.27,8.91-10.89,17.16-13.53ZM2358.75,864.81c-.33-1.32-.66-2.97-.99-4.29-2.64-7.59-7.92-10.23-15.18-7.26-2.64,1.32-5.28,2.64-7.92,4.62-3.96,2.64-11.55,12.21-15.18,14.52.33-3.96,5.94-13.86,7.59-17.16.66-1.98,1.65-3.96,2.31-6.27,0-1.65-1.32-3.63-2.31-3.96-1.32-.66-3.3.33-4.62,1.32-.99.66-1.65,2.64-1.98,3.96-5.61,10.23-10.56,19.8-15.51,29.7-1.32,1.98-1.98,3.3-2.31,5.28-.66,4.29,2.31,6.6,6.27,5.28,2.31-1.32,3.96-2.97,5.94-4.62,8.58-6.93,17.82-18.15,26.4-24.75,7.92-5.61,5.61-1.65,8.58,5.61,2.31,6.93,6.6,9.57,13.53,7.59,3.3-.66,6.93-1.98,9.9-3.96,8.91-4.95,19.8-12.87,28.71-17.82,8.91-5.94,7.59-.99,7.59,8.25,0,2.64-.33,4.62-.33,7.26.33,11.55,6.27,17.16,18.15,15.84,9.57-.99,18.15-4.95,26.4-9.57,5.28-1.98,5.94-5.61,4.62-7.59-.99-1.65-2.97-1.98-8.25-.33-5.61,1.98-13.53,5.94-19.47,7.26-8.58,2.64-13.2.33-12.21-9.57.66-3.96.66-8.58-.33-12.54-.99-6.6-5.61-9.24-11.88-7.92-3.96.66-8.25,2.64-11.88,4.62-9.24,4.62-17.82,9.9-27.06,15.18-2.64,1.32-5.28,2.97-8.58,1.32ZM2520.12,867.45c-9.24,8.58-50.49,17.16-59.07,8.58-2.97-2.97-2.97-6.6,3.63-6.6,4.29,0,8.91-.33,12.87-1.32,5.28-1.65,10.23-3.63,14.52-6.27,2.97-1.65,4.29-4.62,3.63-7.92s-3.3-5.28-6.6-5.61c-7.92,0-16.83,1.32-24.75,4.95-7.26,3.96-8.91,6.27-11.88,14.85-4.62,17.82,13.53,19.14,25.41,18.48,17.49-.99,35.64-5.28,51.81-13.53,1.98-.99,2.97-3.3,1.98-5.61-1.32-2.31-2.97-2.64-5.61-2.31-1.98.66-3.96,1.32-5.94,2.31ZM2486.79,857.88c-5.28,4.95-18.15,7.92-24.75,7.26,10.89-7.26,30.69-14.85,24.75-7.26ZM2583.15,889.89c-8.91,3.63-9.24-.33-6.27-8.58,2.97-6.6,7.92-12.21,6.93-19.14-1.32-14.52-14.85-10.23-24.09-5.61-10.89,5.28-22.11,12.87-31.68,20.79-10.89,9.24,4.29-6.6,6.6-9.9,3.3-4.29,5.94-9.24,8.91-13.86,3.3-5.28,3.96-8.25,1.98-9.57-1.98-1.98-4.95,0-8.25,4.29-.66,1.65-1.32,2.64-2.31,3.96-3.96,5.94-7.92,11.88-12.21,17.49-3.3,5.28-6.6,10.56-10.23,15.84-1.65,1.98-2.31,4.62,0,6.93,2.64,2.64,5.28.99,7.26,0,1.65-.66,2.64-1.98,3.63-2.97,6.93-4.95,13.2-9.9,19.8-14.52,6.93-4.29,14.52-8.58,21.78-12.54,13.86-4.62,10.23,2.64,6.27,12.21-.99,3.96-2.97,6.93-3.96,11.22-.99,5.61.66,9.24,4.62,11.22,4.29,1.65,8.91,1.32,13.53-.66,13.86-5.61,28.05-11.55,41.58-17.82,12.87-5.94,9.57-14.52-4.29-8.25-11.55,5.94-28.05,15.18-39.6,19.47ZM2628.69,795.51c12.21,0,28.38-.33,42.9-.66-12.21,19.47-32.01,45.21-42.24,69.63-6.27,14.52-15.51,45.87,14.19,35.64,17.16-5.94,39.6-22.11,45.21-27.06,2.31-1.98,3.63-4.62,1.98-7.26-1.98-2.64-3.96-1.32-6.6.33-1.98.99-3.3,2.64-5.28,3.96-10.23,8.58-26.4,19.47-35.97,23.1-21.45,8.91-10.56-17.16-2.64-32.67,9.57-18.15,27.72-46.86,42.9-66,20.79.66,102.63,1.32,126.72-2.97,9.24-1.98,10.89-6.93,0-7.59-6.27-.33-15.84.66-26.4,1.65-33.33,3.63-75.9,4.29-94.71.99,12.87-18.81,8.25-14.19,18.15-27.72.66-1.32,2.64-3.3,2.97-4.95,0-1.65-.33-4.62-1.32-5.28-2.64-2.31-5.94.66-7.26,3.3-12.54,16.5-10.56,15.51-22.77,32.67-.33.66-.99,1.32-1.65,1.65-15.18,1.98-31.35,1.98-45.87.66-9.24-.66-11.55,1.98-12.87,3.96-.66,1.32.33,5.94,10.56,4.62Z"/>
</svg>